<?xml version="1.0" encoding="UTF-8"?>
<!-- Generator: visioncortex VTracer -->
<svg id="svg" version="1.1" xmlns="http://www.w3.org/2000/svg" style="display: block;" viewBox="0 0 256 256"><path d="M0 0 C4.50978903 4.36329936 6.28588293 8.29378137 6.6875 14.5625 C6.52175615 20.63701201 4.30818369 24.89440743 0.125 29.25 C-4.6717799 32.90140876 -9.84304814 33.25589274 -15.63671875 34.06640625 C-20.00212987 34.7386023 -23.25333296 35.53374972 -26.875 38.25 C-30.13174793 42.78618461 -30.9920551 46.64969784 -31.03613281 52.15112305 C-31.04574036 53.1228093 -31.0553479 54.09449554 -31.06524658 55.09562683 C-31.0716214 56.66284233 -31.0716214 56.66284233 -31.078125 58.26171875 C-31.08667511 59.88591484 -31.08667511 59.88591484 -31.09539795 61.54292297 C-31.10484161 63.83516464 -31.11137941 66.12741985 -31.11523438 68.41967773 C-31.12491528 71.90698313 -31.15593524 75.39369286 -31.1875 78.88085938 C-31.19403296 81.11197568 -31.19928228 83.34309619 -31.203125 85.57421875 C-31.2154718 86.60890793 -31.2278186 87.64359711 -31.24053955 88.7096405 C-31.22168941 94.91187606 -30.71415815 100.63129129 -27.875 106.25 C-25.71579146 107.86446793 -25.71579146 107.86446793 -22.875 108.25 C-21.73417969 108.57871094 -20.59335938 108.90742188 -19.41796875 109.24609375 C-14.11609851 110.58109705 -8.81855592 110.70354942 -3.375 110.875 C-2.36179687 110.91367188 -1.34859375 110.95234375 -0.3046875 110.9921875 C2.17170284 111.08563619 4.64810151 111.17139873 7.125 111.25 C7.11611755 110.48373291 7.10723511 109.71746582 7.0980835 108.92797852 C7.01724988 101.63379042 6.95669177 94.33982571 6.91775131 87.04530334 C6.89705721 83.29693171 6.86908234 79.54893639 6.82324219 75.80078125 C6.77912234 72.16971249 6.75572712 68.53900087 6.74549103 64.90768433 C6.73472528 62.8785217 6.70361119 60.84949868 6.67181396 58.82055664 C6.66764514 41.15697586 11.29489513 25.61616399 23.6484375 12.6015625 C35.4325389 1.41224225 48.89492636 -4.40724826 65.125 -4.75 C82.27893715 -4.06861223 95.97334338 2.61085638 107.875 14.875 C121.57871014 30.81755686 122.31213781 49.32291564 122.31030273 69.32519531 C122.31248356 71.97998231 122.33067524 74.63434896 122.34960938 77.2890625 C122.42002424 98.04108702 120.32124321 115.11558424 105.6875 130.875 C104.841875 131.65875 103.99625 132.4425 103.125 133.25 C102.31869141 134.06404297 102.31869141 134.06404297 101.49609375 134.89453125 C89.2603335 146.61940381 74.74106067 148.59016244 58.5625 148.375 C57.26763672 148.36597656 55.97277344 148.35695312 54.63867188 148.34765625 C51.46725229 148.32425094 48.29622627 148.29146228 45.125 148.25 C45.14071045 148.87455078 45.1564209 149.49910156 45.17260742 150.14257812 C45.23552044 153.01162417 45.27416731 155.88052442 45.3125 158.75 C45.33763672 159.73226562 45.36277344 160.71453125 45.38867188 161.7265625 C45.46391553 169.250928 44.77240771 175.11491192 39.75 181.0625 C34.99167297 185.02777252 31.4423672 187.03942109 25.125 187.25 C19.74933625 186.13237919 14.89719523 184.34552625 11.125 180.25 C6.94150101 173.36704224 6.61605086 167.08046883 6.875 159.1875 C6.89304687 158.13111328 6.91109375 157.07472656 6.9296875 155.98632812 C6.97637987 153.4065745 7.04184412 150.82879183 7.125 148.25 C6.33963867 148.26571045 5.55427734 148.2814209 4.74511719 148.29760742 C1.12182064 148.36069303 -2.50135973 148.39922211 -6.125 148.4375 C-7.35992187 148.46263672 -8.59484375 148.48777344 -9.8671875 148.51367188 C-25.71406644 148.63877881 -40.23126743 144.454225 -51.97265625 133.30859375 C-67.94696903 116.02222242 -70.24555274 97.46237086 -70.13574219 74.92797852 C-70.12502911 72.31958707 -70.13569581 69.71188623 -70.1484375 67.10351562 C-70.16790926 45.72933845 -67.70714428 28.19798291 -52.62890625 11.80859375 C-44.52204699 3.94134609 -34.08867133 -1.88105478 -22.875 -3.75 C-22.08738281 -3.88148437 -21.29976562 -4.01296875 -20.48828125 -4.1484375 C-12.89712965 -5.19469117 -6.17166889 -4.92957201 0 0 Z M-41.875 24.25 C-42.41769531 24.77207031 -42.96039063 25.29414062 -43.51953125 25.83203125 C-51.7521463 34.39811931 -53.63600546 45.04218027 -53.50390625 56.50390625 C-53.50631821 57.72601303 -53.50873016 58.94811981 -53.51121521 60.20726013 C-53.51024214 62.77289091 -53.4969792 65.33854412 -53.47192383 67.90405273 C-53.43755805 71.80590886 -53.45131257 75.70550231 -53.47070312 79.60742188 C-53.46380481 82.11459286 -53.45413258 84.62175807 -53.44140625 87.12890625 C-53.44636612 88.28129288 -53.45132599 89.4336795 -53.45643616 90.62098694 C-53.28003684 102.89181682 -49.61856748 112.4224877 -40.9921875 121.15625 C-28.96869864 132.28387106 -16.23667882 132.57721882 -0.49609375 132.640625 C12.91148912 132.89019738 12.91148912 132.89019738 18.125 137.25 C23.12868867 143.24964581 22.78038427 149.62254263 22.875 157.1875 C22.90464844 158.34830078 22.93429688 159.50910156 22.96484375 160.70507812 C23.03517401 163.5534538 23.08805414 166.40102837 23.125 169.25 C24.78114657 169.63218767 26.44957024 169.96395102 28.125 170.25 C29.83745283 168.53754717 29.27453852 166.26736742 29.30078125 163.9296875 C29.33655273 162.29 29.33655273 162.29 29.37304688 160.6171875 C29.41557972 158.31268061 29.44706387 156.00793988 29.46679688 153.703125 C29.63339666 147.08562666 29.80676602 142.42638859 34.125 137.25 C41.33419207 131.24347883 51.2687996 132.73424664 60.06445312 132.76171875 C74.3838645 132.59669672 84.81422484 129.34598375 95.08984375 119.3359375 C101.6731852 112.34896623 105.19032682 104.34939076 105.31787109 94.75390625 C105.33393402 93.65175781 105.34999695 92.54960937 105.36654663 91.4140625 C105.41129149 86.36084765 105.45209106 81.30776166 105.47509766 76.25439453 C105.48837272 73.59849129 105.5188281 70.94442396 105.55712891 68.28857422 C105.61226274 64.44215029 105.63383229 60.59676741 105.6484375 56.75 C105.68244156 54.99151733 105.68244156 54.99151733 105.71713257 53.19750977 C105.68686619 41.22528627 101.82542123 32.02278181 93.51953125 23.44140625 C84.98529091 15.63111452 76.32900399 11.66780621 64.75 11.8125 C63.91509033 11.81862305 63.08018066 11.82474609 62.2199707 11.83105469 C53.11568568 12.06174508 46.41486322 14.78260259 39.125 20.25 C38.155625 20.930625 37.18625 21.61125 36.1875 22.3125 C27.10018787 30.18019919 23.72131015 41.25661309 22.85179138 52.91229248 C22.76931146 56.15419679 22.72947121 59.39056232 22.74487495 62.63346481 C22.75416578 64.77063787 22.74356696 66.90696676 22.72825623 69.0440979 C22.68861549 75.10865401 22.6869615 81.17312852 22.68920898 87.23779297 C22.68926023 90.97474354 22.67003942 94.71122571 22.63987541 98.44804764 C22.62913394 100.54156027 22.64111889 102.63414895 22.65370178 104.72763062 C22.59877467 111.72726891 22.5307225 116.65008017 18.125 122.25 C11.57376219 127.16342835 4.48401276 126.46483663 -3.375 126.5 C-5.05722656 126.5309375 -5.05722656 126.5309375 -6.7734375 126.5625 C-18.10620173 126.61484533 -29.2108882 125.14053039 -37.875 117.25 C-45.65800834 108.1868916 -47.33976717 98.63039927 -47.30859375 86.98046875 C-47.3138356 85.82307693 -47.31907745 84.66568512 -47.32447815 83.47322083 C-47.33087426 81.03513385 -47.3295928 78.59701592 -47.32104492 76.15893555 C-47.31254915 72.45890413 -47.34131043 68.76042565 -47.37304688 65.06054688 C-47.37465966 62.67968796 -47.37407988 60.29882634 -47.37109375 57.91796875 C-47.38232773 56.82695358 -47.39356171 55.73593842 -47.40513611 54.61186218 C-47.30680918 43.59402127 -44.84692021 34.12054151 -37.01953125 26.08984375 C-29.594384 19.71963545 -20.37529486 18.06861951 -10.875 17.25 C-10.545 15.6 -10.215 13.95 -9.875 12.25 C-22.87427491 11.21282381 -32.80850627 14.85751998 -41.875 24.25 Z " transform="translate(101.875,36.75)" style="fill: #FFFEFE;"/><path d="M0 0 C6.71622255 5.60690033 11.60450192 13.30570986 13.25 21.9375 C13.55642887 25.90115916 13.57781271 29.85389128 13.5859375 33.828125 C13.5959227 35.53872101 13.5959227 35.53872101 13.60610962 37.28387451 C13.61620848 39.6910237 13.6209275 42.09820074 13.62060547 44.50537109 C13.6249691 48.16160987 13.6612942 51.81663145 13.69921875 55.47265625 C13.70508958 57.82030841 13.70905719 60.16796625 13.7109375 62.515625 C13.72530853 63.59620178 13.73967957 64.67677856 13.75448608 65.7901001 C13.69145878 76.41891715 10.82767525 86.20725411 3.25 93.9375 C-6.52667174 102.48965818 -18.55463649 103.44347239 -31.0625 103.3125 C-32.75342773 103.32990234 -32.75342773 103.32990234 -34.47851562 103.34765625 C-42.25796695 103.3202155 -47.52628039 102.73139033 -53.5625 97.5 C-57.40158728 93.00278347 -58.00342557 90.07409175 -58.04052734 84.14038086 C-58.04724457 83.46496246 -58.05396179 82.78954407 -58.06088257 82.09365845 C-58.0798588 79.86314497 -58.08378762 77.63293292 -58.0859375 75.40234375 C-58.09236964 73.84257384 -58.09909831 72.28280513 -58.10610962 70.72303772 C-58.11808425 67.45050262 -58.12179065 64.17807304 -58.12060547 60.90551758 C-58.12040317 56.7385439 -58.14761121 52.57225909 -58.18214989 48.40544796 C-58.20454381 45.18037395 -58.20843909 41.95546182 -58.20738602 38.73031807 C-58.20972685 37.19591479 -58.21846363 35.66150599 -58.23405075 34.1271801 C-58.34327638 22.25636054 -57.34990978 11.68796702 -48.734375 2.72265625 C-34.74553091 -9.86179601 -15.50589306 -10.87765854 0 0 Z M-38.125 14.3125 C-41.1044138 19.12539922 -41.99906334 22.80369111 -41.97705078 28.47192383 C-41.97689972 29.77289505 -41.97674866 31.07386627 -41.97659302 32.41426086 C-41.96638124 33.82435257 -41.95594927 35.23444269 -41.9453125 36.64453125 C-41.94157959 38.09469914 -41.93873393 39.54486957 -41.93673706 40.99504089 C-41.92912249 44.80088334 -41.90949289 48.6065717 -41.8873291 52.41235352 C-41.86682363 56.30027177 -41.85772531 60.18821506 -41.84765625 64.07617188 C-41.82624478 71.69668462 -41.79213534 79.31707067 -41.75 86.9375 C-38.25007197 86.99619332 -34.7502728 87.03132709 -31.25 87.0625 C-29.77660156 87.08763672 -29.77660156 87.08763672 -28.2734375 87.11328125 C-21.13299905 87.16088417 -13.5110472 87.20331234 -7.875 82.1875 C-7.32070312 81.71828125 -6.76640625 81.2490625 -6.1953125 80.765625 C-1.88402074 75.31242353 -2.42850102 68.50358251 -2.4140625 61.9140625 C-2.4074057 60.85391937 -2.4007489 59.79377625 -2.39389038 58.70150757 C-2.38378837 56.46410857 -2.3790726 54.22667959 -2.37939453 51.98925781 C-2.37502356 48.58087126 -2.33868248 45.17378256 -2.30078125 41.765625 C-2.29491203 39.5859419 -2.29094334 37.40625269 -2.2890625 35.2265625 C-2.27469147 34.21485992 -2.26032043 33.20315735 -2.24551392 32.16079712 C-2.2896489 25.26757757 -3.34681594 19.60532467 -8.16201782 14.41567993 C-13.54388331 9.64169275 -18.17508528 8.52038206 -25.18359375 8.6875 C-30.45769882 9.20126366 -34.3564287 10.5439287 -38.125 14.3125 Z " transform="translate(188.75,61.0625)" style="fill: #FFFEFE;"/></svg>